<svg width="108" height="138" viewBox="0 0 108 138" fill="none" xmlns="http://www.w3.org/2000/svg">
<path fill-rule="evenodd" clip-rule="evenodd" d="M69.1548 31.1211C69.1548 22.7651 62.3593 15.9696 54.0033 15.9696C45.6472 15.9696 38.8518 22.7651 38.8518 31.1211C38.8518 39.4772 45.6472 46.2726 54.0033 46.2726C62.3593 46.2726 69.1548 39.4772 69.1548 31.1211ZM84.3039 31.1211C84.3039 47.8332 70.713 61.4241 54.0009 61.4241C37.2888 61.4241 23.6978 47.8332 23.6978 31.1211C23.6978 14.409 37.2888 0.818108 54.0009 0.818108C70.713 0.818108 84.3039 14.409 84.3039 31.1211ZM0.972412 129.606C0.972412 100.363 24.7679 76.5756 54.0027 76.5756C83.2375 76.5756 107.033 100.363 107.033 129.606C107.033 133.788 103.647 137.182 99.4572 137.182C95.2678 137.182 91.8815 133.788 91.8815 129.606C91.8815 108.719 74.889 91.7271 54.0027 91.7271C33.1163 91.7271 16.1239 108.719 16.1239 129.606C16.1239 133.788 12.7376 137.182 8.54817 137.182C4.35877 137.182 0.972412 133.788 0.972412 129.606Z" fill="#8BA5B9"/>
</svg>
