<svg width="24" height="24" viewBox="0 0 24 24" fill="none" xmlns="http://www.w3.org/2000/svg">
<g opacity="0.9" clip-path="url(#clip0)">
<path d="M14.9998 13.0001C14.4469 13.0001 13.9999 13.4482 13.9999 14.0001V18.0001C13.9999 18.5511 13.5519 19.0001 12.9998 19.0001H9.99983V4.00021C9.99983 3.14621 9.45583 2.38322 8.63791 2.09922L8.34183 2.00016H12.9998C13.5519 2.00016 13.9999 2.44914 13.9999 3.00028V6.00025C13.9999 6.55212 14.4469 7.00018 14.9998 7.00018C15.5528 7.00018 15.9998 6.55212 15.9998 6.00025V3.00028C15.9998 1.3463 14.6538 0.000305176 12.9998 0.000305176H2.24998C2.21189 0.000305176 2.18003 0.0173339 2.14304 0.0222776C2.09489 0.0182494 2.04893 0.000305176 2.00004 0.000305176C0.897024 0.000305176 0 0.897147 0 2.00016V20C0 20.854 0.544001 21.617 1.36192 21.901L7.37999 23.9071C7.58397 23.9701 7.78684 24.0001 7.99998 24.0001C9.10299 24.0001 9.99983 23.1031 9.99983 22V21.0001H12.9998C14.6538 21.0001 15.9998 19.6541 15.9998 18.0001V14.0001C15.9998 13.4482 15.5528 13.0001 14.9998 13.0001Z" fill="white"/>
<path d="M23.7067 9.29317L19.7067 5.29327C19.4208 5.00726 18.9907 4.9212 18.6168 5.07611C18.2438 5.2312 17.9998 5.59612 17.9998 6.00023V9.0002H13.9999C13.4478 9.0002 12.9998 9.44807 12.9998 10.0001C12.9998 10.5522 13.4478 11.0001 13.9999 11.0001H17.9998V14C17.9998 14.4041 18.2438 14.7691 18.6168 14.9241C18.9907 15.0791 19.4208 14.993 19.7067 14.7072L23.7067 10.7071C24.0977 10.3162 24.0977 9.68409 23.7067 9.29317Z" fill="white"/>
</g>
<defs>
<clipPath id="clip0">
<rect width="24" height="24" fill="white"/>
</clipPath>
</defs>
</svg>
