<svg viewBox="0 0 60 60" fill="none" xmlns="http://www.w3.org/2000/svg">
<rect x="0.5" y="0.5" width="59" height="59" rx="29.5" fill="white" stroke="#8BA5B9"/>
<path fill-rule="evenodd" clip-rule="evenodd" d="M32.9632 22.5926C32.9632 20.9585 31.6343 19.6296 30.0002 19.6296C28.3662 19.6296 27.0373 20.9585 27.0373 22.5926C27.0373 24.2267 28.3662 25.5555 30.0002 25.5555C31.6343 25.5555 32.9632 24.2267 32.9632 22.5926ZM35.9262 22.5926C35.9262 25.8607 33.2684 28.5185 30.0003 28.5185C26.7321 28.5185 24.0743 25.8607 24.0743 22.5926C24.0743 19.3244 26.7321 16.6667 30.0003 16.6667C33.2684 16.6667 35.9262 19.3244 35.9262 22.5926ZM19.6299 41.8518C19.6299 36.1333 24.2832 31.4815 30.0003 31.4815C35.7173 31.4815 40.3706 36.1333 40.3706 41.8518C40.3706 42.6696 39.7084 43.3333 38.8891 43.3333C38.0699 43.3333 37.4077 42.6696 37.4077 41.8518C37.4077 37.7674 34.0847 34.4444 30.0003 34.4444C25.9158 34.4444 22.5928 37.7674 22.5928 41.8518C22.5928 42.6696 21.9306 43.3333 21.1114 43.3333C20.2921 43.3333 19.6299 42.6696 19.6299 41.8518Z" fill="#8BA5B9"/>
</svg>
