<svg width="24" height="24" viewBox="0 0 24 24" fill="none" xmlns="http://www.w3.org/2000/svg">
<g opacity="0.9" clip-path="url(#clip0)">
<path d="M23.5969 10.7289L12.8289 0.91717C12.3563 0.486436 11.6435 0.486483 11.1711 0.917123L0.403018 10.729C0.0244087 11.074 -0.100654 11.6055 0.0843149 12.0831C0.26933 12.5608 0.719799 12.8693 1.232 12.8693H2.95184V22.7C2.95184 23.0898 3.26788 23.4058 3.65764 23.4058H9.55986C9.94962 23.4058 10.2657 23.0898 10.2657 22.7V16.7311H13.7345V22.7C13.7345 23.0898 14.0505 23.4058 14.4403 23.4058H20.3422C20.732 23.4058 21.048 23.0898 21.048 22.7V12.8693H22.7682C23.2803 12.8693 23.7309 12.5607 23.9159 12.0831C24.1006 11.6055 23.9755 11.074 23.5969 10.7289Z" fill="white"/>
<path d="M20.8636 2.00299H16.1237L21.5694 6.95467V2.70874C21.5694 2.31897 21.2534 2.00299 20.8636 2.00299Z" fill="white"/>
</g>
<defs>
<clipPath id="clip0">
<rect width="24" height="24" fill="white"/>
</clipPath>
</defs>
</svg>
